<mxfile host="app.diagrams.net" agent="Mozilla/5.0 (Windows NT 10.0; Win64; x64) AppleWebKit/537.36 (KHTML, like Gecko) Chrome/128.0.0.0 Safari/537.36" version="24.7.16">
  <diagram name="PÃ¡gina-1" id="nuRB3zGGrpMCYvHhlllO">
    <mxGraphModel dx="1964" dy="714" grid="1" gridSize="10" guides="1" tooltips="1" connect="1" arrows="1" fold="1" page="1" pageScale="1" pageWidth="827" pageHeight="1169" math="0" shadow="0">
      <root>
        <mxCell id="0" />
        <mxCell id="1" parent="0" />
        <mxCell id="1MQO9G28q89DZG1HVqWR-1" value="EQUIPA" style="rounded=0;whiteSpace=wrap;html=1;" vertex="1" parent="1">
          <mxGeometry x="120" y="110" width="120" height="60" as="geometry" />
        </mxCell>
        <mxCell id="1MQO9G28q89DZG1HVqWR-2" value="JOGADOR" style="rounded=0;whiteSpace=wrap;html=1;" vertex="1" parent="1">
          <mxGeometry x="590" y="170" width="120" height="60" as="geometry" />
        </mxCell>
        <mxCell id="1MQO9G28q89DZG1HVqWR-3" value="JOGO" style="rounded=0;whiteSpace=wrap;html=1;" vertex="1" parent="1">
          <mxGeometry x="970" y="110" width="120" height="60" as="geometry" />
        </mxCell>
        <mxCell id="1MQO9G28q89DZG1HVqWR-4" value="Pais" style="ellipse;whiteSpace=wrap;html=1;align=center;" vertex="1" parent="1">
          <mxGeometry x="300" y="350" width="100" height="40" as="geometry" />
        </mxCell>
        <mxCell id="1MQO9G28q89DZG1HVqWR-5" value="Rua" style="ellipse;whiteSpace=wrap;html=1;align=center;" vertex="1" parent="1">
          <mxGeometry x="-10" y="370" width="100" height="40" as="geometry" />
        </mxCell>
        <mxCell id="1MQO9G28q89DZG1HVqWR-7" value="NumInterno" style="ellipse;whiteSpace=wrap;html=1;align=center;fontStyle=4;" vertex="1" parent="1">
          <mxGeometry x="20" y="220" width="100" height="40" as="geometry" />
        </mxCell>
        <mxCell id="1MQO9G28q89DZG1HVqWR-8" value="AnoFundacao" style="ellipse;whiteSpace=wrap;html=1;align=center;" vertex="1" parent="1">
          <mxGeometry x="250" y="200" width="100" height="40" as="geometry" />
        </mxCell>
        <mxCell id="1MQO9G28q89DZG1HVqWR-9" value="Morada" style="ellipse;whiteSpace=wrap;html=1;align=center;" vertex="1" parent="1">
          <mxGeometry x="130" y="280" width="100" height="40" as="geometry" />
        </mxCell>
        <mxCell id="1MQO9G28q89DZG1HVqWR-12" value="Nome" style="ellipse;whiteSpace=wrap;html=1;align=center;" vertex="1" parent="1">
          <mxGeometry x="-30" y="120" width="100" height="40" as="geometry" />
        </mxCell>
        <mxCell id="1MQO9G28q89DZG1HVqWR-13" value="NumPorta" style="ellipse;whiteSpace=wrap;html=1;align=center;" vertex="1" parent="1">
          <mxGeometry x="50" y="430" width="100" height="40" as="geometry" />
        </mxCell>
        <mxCell id="1MQO9G28q89DZG1HVqWR-14" value="Nome" style="ellipse;whiteSpace=wrap;html=1;align=center;" vertex="1" parent="1">
          <mxGeometry x="727" y="240" width="100" height="40" as="geometry" />
        </mxCell>
        <mxCell id="1MQO9G28q89DZG1HVqWR-15" value="Genero" style="ellipse;whiteSpace=wrap;html=1;align=center;" vertex="1" parent="1">
          <mxGeometry x="680" y="450" width="100" height="40" as="geometry" />
        </mxCell>
        <mxCell id="1MQO9G28q89DZG1HVqWR-16" value="DataNasc" style="ellipse;whiteSpace=wrap;html=1;align=center;" vertex="1" parent="1">
          <mxGeometry x="470" y="260" width="100" height="40" as="geometry" />
        </mxCell>
        <mxCell id="1MQO9G28q89DZG1HVqWR-19" value="NumJogador" style="ellipse;whiteSpace=wrap;html=1;align=center;fontStyle=4;" vertex="1" parent="1">
          <mxGeometry x="480" y="350" width="100" height="40" as="geometry" />
        </mxCell>
        <mxCell id="1MQO9G28q89DZG1HVqWR-21" value="Posicao" style="ellipse;whiteSpace=wrap;html=1;align=center;" vertex="1" parent="1">
          <mxGeometry x="730" y="340" width="100" height="40" as="geometry" />
        </mxCell>
        <mxCell id="1MQO9G28q89DZG1HVqWR-22" value="CodPostal" style="ellipse;whiteSpace=wrap;html=1;align=center;" vertex="1" parent="1">
          <mxGeometry x="160" y="490" width="100" height="40" as="geometry" />
        </mxCell>
        <mxCell id="1MQO9G28q89DZG1HVqWR-23" value="Localidade" style="ellipse;whiteSpace=wrap;html=1;align=center;" vertex="1" parent="1">
          <mxGeometry x="260" y="420" width="100" height="40" as="geometry" />
        </mxCell>
        <mxCell id="1MQO9G28q89DZG1HVqWR-24" value="Idade" style="ellipse;whiteSpace=wrap;html=1;align=center;dashed=1;" vertex="1" parent="1">
          <mxGeometry x="540" y="450" width="100" height="40" as="geometry" />
        </mxCell>
        <mxCell id="1MQO9G28q89DZG1HVqWR-25" value="NumJogo" style="ellipse;whiteSpace=wrap;html=1;align=center;fontStyle=4;" vertex="1" parent="1">
          <mxGeometry x="1200" y="280" width="100" height="40" as="geometry" />
        </mxCell>
        <mxCell id="1MQO9G28q89DZG1HVqWR-26" value="Data" style="ellipse;whiteSpace=wrap;html=1;align=center;" vertex="1" parent="1">
          <mxGeometry x="970" y="440" width="100" height="40" as="geometry" />
        </mxCell>
        <mxCell id="1MQO9G28q89DZG1HVqWR-27" value="Visitante" style="ellipse;whiteSpace=wrap;html=1;align=center;" vertex="1" parent="1">
          <mxGeometry x="1110" y="450" width="100" height="40" as="geometry" />
        </mxCell>
        <mxCell id="1MQO9G28q89DZG1HVqWR-28" value="Visitado" style="ellipse;whiteSpace=wrap;html=1;align=center;" vertex="1" parent="1">
          <mxGeometry x="880" y="370" width="100" height="40" as="geometry" />
        </mxCell>
        <mxCell id="1MQO9G28q89DZG1HVqWR-29" value="Resultado ?" style="ellipse;whiteSpace=wrap;html=1;align=center;" vertex="1" parent="1">
          <mxGeometry x="1220" y="200" width="100" height="40" as="geometry" />
        </mxCell>
        <mxCell id="1MQO9G28q89DZG1HVqWR-30" value="Local" style="ellipse;whiteSpace=wrap;html=1;align=center;" vertex="1" parent="1">
          <mxGeometry x="1141" y="370" width="100" height="40" as="geometry" />
        </mxCell>
        <mxCell id="1MQO9G28q89DZG1HVqWR-33" value="" style="endArrow=none;html=1;rounded=0;exitX=0;exitY=0;exitDx=0;exitDy=0;entryX=0.5;entryY=1;entryDx=0;entryDy=0;" edge="1" parent="1" source="1MQO9G28q89DZG1HVqWR-27" target="1MQO9G28q89DZG1HVqWR-3">
          <mxGeometry width="50" height="50" relative="1" as="geometry">
            <mxPoint x="460" y="410" as="sourcePoint" />
            <mxPoint x="510" y="360" as="targetPoint" />
          </mxGeometry>
        </mxCell>
        <mxCell id="1MQO9G28q89DZG1HVqWR-34" value="" style="endArrow=none;html=1;rounded=0;exitX=0;exitY=0;exitDx=0;exitDy=0;entryX=0.75;entryY=1;entryDx=0;entryDy=0;" edge="1" parent="1" source="1MQO9G28q89DZG1HVqWR-30" target="1MQO9G28q89DZG1HVqWR-3">
          <mxGeometry width="50" height="50" relative="1" as="geometry">
            <mxPoint x="460" y="410" as="sourcePoint" />
            <mxPoint x="510" y="360" as="targetPoint" />
          </mxGeometry>
        </mxCell>
        <mxCell id="1MQO9G28q89DZG1HVqWR-35" value="" style="endArrow=none;html=1;rounded=0;exitX=0;exitY=0.5;exitDx=0;exitDy=0;entryX=1;entryY=1;entryDx=0;entryDy=0;" edge="1" parent="1" source="1MQO9G28q89DZG1HVqWR-25" target="1MQO9G28q89DZG1HVqWR-3">
          <mxGeometry width="50" height="50" relative="1" as="geometry">
            <mxPoint x="460" y="410" as="sourcePoint" />
            <mxPoint x="510" y="360" as="targetPoint" />
          </mxGeometry>
        </mxCell>
        <mxCell id="1MQO9G28q89DZG1HVqWR-36" value="" style="endArrow=none;html=1;rounded=0;exitX=0;exitY=0.5;exitDx=0;exitDy=0;entryX=1;entryY=0.5;entryDx=0;entryDy=0;" edge="1" parent="1" source="1MQO9G28q89DZG1HVqWR-29" target="1MQO9G28q89DZG1HVqWR-3">
          <mxGeometry width="50" height="50" relative="1" as="geometry">
            <mxPoint x="460" y="410" as="sourcePoint" />
            <mxPoint x="510" y="360" as="targetPoint" />
          </mxGeometry>
        </mxCell>
        <mxCell id="1MQO9G28q89DZG1HVqWR-37" value="" style="endArrow=none;html=1;rounded=0;exitX=0.5;exitY=0;exitDx=0;exitDy=0;entryX=0.442;entryY=1.017;entryDx=0;entryDy=0;entryPerimeter=0;" edge="1" parent="1" source="1MQO9G28q89DZG1HVqWR-24" target="1MQO9G28q89DZG1HVqWR-2">
          <mxGeometry width="50" height="50" relative="1" as="geometry">
            <mxPoint x="460" y="410" as="sourcePoint" />
            <mxPoint x="510" y="360" as="targetPoint" />
          </mxGeometry>
        </mxCell>
        <mxCell id="1MQO9G28q89DZG1HVqWR-38" value="" style="endArrow=none;html=1;rounded=0;exitX=1;exitY=0;exitDx=0;exitDy=0;entryX=0.25;entryY=1;entryDx=0;entryDy=0;" edge="1" parent="1" source="1MQO9G28q89DZG1HVqWR-19" target="1MQO9G28q89DZG1HVqWR-2">
          <mxGeometry width="50" height="50" relative="1" as="geometry">
            <mxPoint x="460" y="410" as="sourcePoint" />
            <mxPoint x="510" y="360" as="targetPoint" />
          </mxGeometry>
        </mxCell>
        <mxCell id="1MQO9G28q89DZG1HVqWR-39" value="" style="endArrow=none;html=1;rounded=0;entryX=0.5;entryY=0;entryDx=0;entryDy=0;exitX=0.5;exitY=1;exitDx=0;exitDy=0;" edge="1" parent="1" source="1MQO9G28q89DZG1HVqWR-2" target="1MQO9G28q89DZG1HVqWR-15">
          <mxGeometry width="50" height="50" relative="1" as="geometry">
            <mxPoint x="460" y="410" as="sourcePoint" />
            <mxPoint x="510" y="360" as="targetPoint" />
          </mxGeometry>
        </mxCell>
        <mxCell id="1MQO9G28q89DZG1HVqWR-40" value="" style="endArrow=none;html=1;rounded=0;exitX=0;exitY=0;exitDx=0;exitDy=0;entryX=0.817;entryY=1.017;entryDx=0;entryDy=0;entryPerimeter=0;" edge="1" parent="1" source="1MQO9G28q89DZG1HVqWR-21" target="1MQO9G28q89DZG1HVqWR-2">
          <mxGeometry width="50" height="50" relative="1" as="geometry">
            <mxPoint x="460" y="410" as="sourcePoint" />
            <mxPoint x="510" y="360" as="targetPoint" />
          </mxGeometry>
        </mxCell>
        <mxCell id="1MQO9G28q89DZG1HVqWR-41" value="" style="endArrow=none;html=1;rounded=0;exitX=0;exitY=0.5;exitDx=0;exitDy=0;entryX=1;entryY=1;entryDx=0;entryDy=0;" edge="1" parent="1" source="1MQO9G28q89DZG1HVqWR-14" target="1MQO9G28q89DZG1HVqWR-2">
          <mxGeometry width="50" height="50" relative="1" as="geometry">
            <mxPoint x="460" y="410" as="sourcePoint" />
            <mxPoint x="510" y="360" as="targetPoint" />
          </mxGeometry>
        </mxCell>
        <mxCell id="1MQO9G28q89DZG1HVqWR-42" value="" style="endArrow=none;html=1;rounded=0;exitX=0;exitY=1;exitDx=0;exitDy=0;entryX=1;entryY=0.5;entryDx=0;entryDy=0;" edge="1" parent="1" source="1MQO9G28q89DZG1HVqWR-2" target="1MQO9G28q89DZG1HVqWR-16">
          <mxGeometry width="50" height="50" relative="1" as="geometry">
            <mxPoint x="460" y="410" as="sourcePoint" />
            <mxPoint x="510" y="360" as="targetPoint" />
          </mxGeometry>
        </mxCell>
        <mxCell id="1MQO9G28q89DZG1HVqWR-43" value="" style="endArrow=none;html=1;rounded=0;exitX=1;exitY=0;exitDx=0;exitDy=0;entryX=0;entryY=1;entryDx=0;entryDy=0;" edge="1" parent="1" source="1MQO9G28q89DZG1HVqWR-5" target="1MQO9G28q89DZG1HVqWR-9">
          <mxGeometry width="50" height="50" relative="1" as="geometry">
            <mxPoint x="460" y="410" as="sourcePoint" />
            <mxPoint x="510" y="360" as="targetPoint" />
          </mxGeometry>
        </mxCell>
        <mxCell id="1MQO9G28q89DZG1HVqWR-44" value="" style="endArrow=none;html=1;rounded=0;exitX=0.5;exitY=0;exitDx=0;exitDy=0;entryX=0.28;entryY=0.975;entryDx=0;entryDy=0;entryPerimeter=0;" edge="1" parent="1" source="1MQO9G28q89DZG1HVqWR-13" target="1MQO9G28q89DZG1HVqWR-9">
          <mxGeometry width="50" height="50" relative="1" as="geometry">
            <mxPoint x="460" y="410" as="sourcePoint" />
            <mxPoint x="510" y="360" as="targetPoint" />
          </mxGeometry>
        </mxCell>
        <mxCell id="1MQO9G28q89DZG1HVqWR-45" value="" style="endArrow=none;html=1;rounded=0;exitX=0;exitY=0;exitDx=0;exitDy=0;" edge="1" parent="1" source="1MQO9G28q89DZG1HVqWR-23" target="1MQO9G28q89DZG1HVqWR-9">
          <mxGeometry width="50" height="50" relative="1" as="geometry">
            <mxPoint x="460" y="410" as="sourcePoint" />
            <mxPoint x="510" y="360" as="targetPoint" />
          </mxGeometry>
        </mxCell>
        <mxCell id="1MQO9G28q89DZG1HVqWR-46" value="" style="endArrow=none;html=1;rounded=0;exitX=0.5;exitY=1;exitDx=0;exitDy=0;entryX=0.5;entryY=0;entryDx=0;entryDy=0;" edge="1" parent="1" source="1MQO9G28q89DZG1HVqWR-9" target="1MQO9G28q89DZG1HVqWR-22">
          <mxGeometry width="50" height="50" relative="1" as="geometry">
            <mxPoint x="460" y="410" as="sourcePoint" />
            <mxPoint x="510" y="360" as="targetPoint" />
          </mxGeometry>
        </mxCell>
        <mxCell id="1MQO9G28q89DZG1HVqWR-47" value="" style="endArrow=none;html=1;rounded=0;exitX=1;exitY=1;exitDx=0;exitDy=0;entryX=0;entryY=0;entryDx=0;entryDy=0;" edge="1" parent="1" source="1MQO9G28q89DZG1HVqWR-9" target="1MQO9G28q89DZG1HVqWR-4">
          <mxGeometry width="50" height="50" relative="1" as="geometry">
            <mxPoint x="460" y="410" as="sourcePoint" />
            <mxPoint x="510" y="360" as="targetPoint" />
          </mxGeometry>
        </mxCell>
        <mxCell id="1MQO9G28q89DZG1HVqWR-48" value="" style="endArrow=none;html=1;rounded=0;exitX=0.5;exitY=0;exitDx=0;exitDy=0;entryX=0.5;entryY=1;entryDx=0;entryDy=0;" edge="1" parent="1" source="1MQO9G28q89DZG1HVqWR-9" target="1MQO9G28q89DZG1HVqWR-1">
          <mxGeometry width="50" height="50" relative="1" as="geometry">
            <mxPoint x="460" y="410" as="sourcePoint" />
            <mxPoint x="510" y="360" as="targetPoint" />
          </mxGeometry>
        </mxCell>
        <mxCell id="1MQO9G28q89DZG1HVqWR-49" value="" style="endArrow=none;html=1;rounded=0;exitX=0;exitY=0;exitDx=0;exitDy=0;entryX=1;entryY=1;entryDx=0;entryDy=0;" edge="1" parent="1" source="1MQO9G28q89DZG1HVqWR-8" target="1MQO9G28q89DZG1HVqWR-1">
          <mxGeometry width="50" height="50" relative="1" as="geometry">
            <mxPoint x="460" y="410" as="sourcePoint" />
            <mxPoint x="510" y="360" as="targetPoint" />
          </mxGeometry>
        </mxCell>
        <mxCell id="1MQO9G28q89DZG1HVqWR-50" value="" style="endArrow=none;html=1;rounded=0;exitX=1;exitY=0;exitDx=0;exitDy=0;entryX=0.25;entryY=1;entryDx=0;entryDy=0;" edge="1" parent="1" source="1MQO9G28q89DZG1HVqWR-7" target="1MQO9G28q89DZG1HVqWR-1">
          <mxGeometry width="50" height="50" relative="1" as="geometry">
            <mxPoint x="460" y="410" as="sourcePoint" />
            <mxPoint x="510" y="360" as="targetPoint" />
          </mxGeometry>
        </mxCell>
        <mxCell id="1MQO9G28q89DZG1HVqWR-51" value="" style="endArrow=none;html=1;rounded=0;exitX=1;exitY=0.5;exitDx=0;exitDy=0;entryX=0;entryY=0.5;entryDx=0;entryDy=0;" edge="1" parent="1" source="1MQO9G28q89DZG1HVqWR-12" target="1MQO9G28q89DZG1HVqWR-1">
          <mxGeometry width="50" height="50" relative="1" as="geometry">
            <mxPoint x="460" y="410" as="sourcePoint" />
            <mxPoint x="510" y="360" as="targetPoint" />
          </mxGeometry>
        </mxCell>
        <mxCell id="1MQO9G28q89DZG1HVqWR-52" value="" style="endArrow=none;html=1;rounded=0;exitX=0.5;exitY=0;exitDx=0;exitDy=0;entryX=0.25;entryY=1;entryDx=0;entryDy=0;" edge="1" parent="1" source="1MQO9G28q89DZG1HVqWR-26" target="1MQO9G28q89DZG1HVqWR-3">
          <mxGeometry width="50" height="50" relative="1" as="geometry">
            <mxPoint x="930" y="410" as="sourcePoint" />
            <mxPoint x="980" y="360" as="targetPoint" />
          </mxGeometry>
        </mxCell>
        <mxCell id="1MQO9G28q89DZG1HVqWR-53" value="" style="endArrow=none;html=1;rounded=0;exitX=1;exitY=0;exitDx=0;exitDy=0;entryX=0;entryY=1;entryDx=0;entryDy=0;" edge="1" parent="1" source="1MQO9G28q89DZG1HVqWR-28" target="1MQO9G28q89DZG1HVqWR-3">
          <mxGeometry width="50" height="50" relative="1" as="geometry">
            <mxPoint x="930" y="410" as="sourcePoint" />
            <mxPoint x="980" y="360" as="targetPoint" />
          </mxGeometry>
        </mxCell>
      </root>
    </mxGraphModel>
  </diagram>
</mxfile>
